#!OML:ASF Y:\EmotionMaleHayes\Project 1\Capture day 1\Session 1\Male1.ASF
:FULLY-SPECIFIED
:DEGREES
2639
root 7.80658 17.1242 14.6067 1071.9 -36.0264 720.566
lowerback 0.070527 1.26904 -3.68441
upperback 0.781652 1.70613 -1.21177
thorax 0.691554 0.830696 0.829209
lowerneck -27.7768 -3.14109 -1.58434
upperneck 24.6309 -5.40211 4.99192
head 13.0674 -1.81535 1.17821
rclavicle -2.58917e-014 5.56597e-015
rhumerus 34.1237 15.9511 -38.7303
rradius 37.9794
rwrist -0.881784
rhand -5.85385 -30.2043
rfingers 7.12502
rthumb 19.9728 -59.1978
lclavicle -2.58917e-014 5.56597e-015
lhumerus 35.4061 -14.5487 37.3026
lradius 38.7867
lwrist 4.14993
lhand -18.2129 -26.1987
lfingers 7.12502
lthumb 8.06488 3.62746
rfemur 12.0952 -10.256 19.2959
rtibia 7.98744
rfoot -19.1216 -0.805218
rtoes 26.483
lfemur 9.29672 7.54567 -0.350127
ltibia 45.869
lfoot -3.95239 5.37792
ltoes -5.6225
2640
root 7.74715 17.1227 14.65 1072.01 -36.7192 720.31
lowerback -0.0408283 1.31948 -3.55673
upperback 0.731514 1.77672 -1.02948
thorax 0.697617 0.867111 0.94688
lowerneck -27.7063 -3.08749 -1.46067
upperneck 24.4601 -5.36997 4.99783
head 12.9799 -1.79312 1.16567
rclavicle 2.72832e-014 -1.35174e-014
rhumerus 34.2992 15.494 -39.1016
rradius 37.8658
rwrist -0.739238
rhand -6.02013 -30.2303
rfingers 7.12502
rthumb 19.813 -59.2405
lclavicle 2.72832e-014 -1.35174e-014
lhumerus 35.5401 -14.3438 37.3986
lradius 38.8023
lwrist 3.88882
lhand -18.6102 -25.9526
lfingers 7.12502
lthumb 7.68141 3.8879
rfemur 12.3893 -9.52109 19.8931
rtibia 7.85833
rfoot -19.3129 -0.855352
rtoes 26.9264
lfemur 8.76642 7.36793 -0.536003
ltibia 45.9729
lfoot -4.84256 5.53636
ltoes -9.31953
2641
root 7.69219 17.1245 14.6944 1071.82 -37.3011 720.567
lowerback -0.15475 1.3962 -3.91767
upperback 0.68724 1.88437 -0.898343
thorax 0.695867 0.918872 1.28519
lowerneck -27.7793 -3.08448 -1.21511
upperneck 24.5789 -5.40557 4.75828
head 13.027 -1.81594 1.02497
rclavicle 1.28564e-013 -1.82882e-014
rhumerus 34.3825 14.9782 -39.3504
rradius 37.8216
rwrist -0.706486
rhand -5.94328 -30.2554
rfingers 7.12502
rthumb 19.8869 -59.2579
lclavicle 1.28564e-013 -1.82882e-014
lhumerus 35.6517 -14.8329 36.7854
lradius 39.4078
lwrist 4.76642
lhand -19.3434 -24.4857
lfingers 7.12502
lthumb 6.97364 5.37944
rfemur 12.6467 -9.17208 19.8061
rtibia 7.81776
rfoot -19.3949 -0.796017
rtoes 25.9395
lfemur 8.22731 7.1383 -1.29151
ltibia 45.8734
lfoot -5.52363 5.69957
ltoes -11.473
2642
root 7.6442 17.1291 14.7415 1071.37 -37.7885 721.4
lowerback -0.193617 1.43265 -4.28425
upperback 0.532568 1.93155 -1.20902
thorax 0.555388 0.944768 1.16999
lowerneck -27.7653 -3.01264 -0.924594
upperneck 24.6277 -5.48087 4.89694
head 13.0454 -1.80053 1.01681
rclavicle -2.45499e-014 6.36111e-015
rhumerus 34.4017 14.6137 -39.9151
rradius 37.7438
rwrist -0.777348
rhand -5.73374 -30.3582
rfingers 7.12502
rthumb 20.0883 -59.3397
lclavicle -2.45499e-014 6.36111e-015
lhumerus 35.7366 -15.0148 35.6382
lradius 39.8327
lwrist 4.29763
lhand -18.2841 -25.0058
lfingers 7.12502
lthumb 7.99615 4.82294
rfemur 12.8513 -8.87082 19.135
rtibia 7.72295
rfoot -19.3761 -0.63866
rtoes 25.3017
lfemur 7.5646 6.4729 -2.87292
ltibia 45.792
lfoot -6.51457 5.9564
ltoes -9.13588
2643
root 7.59839 17.1338 14.791 1071.11 -38.2565 721.813
lowerback -0.200875 1.42596 -4.3013
upperback 0.442309 1.9196 -1.39022
thorax 0.473024 0.941242 0.992569
lowerneck -27.8621 -3.07979 -0.87463
upperneck 24.7382 -5.66615 5.07125
head 13.1228 -1.84786 1.04047
rclavicle -1.55052e-014 -1.90833e-014
rhumerus 34.5463 14.3402 -40.2462
rradius 37.681
rwrist -0.663163
rhand -5.47839 -30.27
rfingers 7.12502
rthumb 20.3337 -59.2255
lclavicle -1.55052e-014 -1.90833e-014
lhumerus 36.1432 -14.1393 36.5316
lradius 38.9852
lwrist 2.94373
lhand -17.4513 -25.6286
lfingers 7.12502
lthumb 8.79989 4.16789
rfemur 13.193 -8.52879 18.8936
rtibia 7.54534
rfoot -19.4188 -0.462008
rtoes 25.3579
lfemur 6.9569 5.63389 -4.07957
ltibia 45.7994
lfoot -8.37599 6.16985
ltoes -4.01872
2644
root 7.55049 17.1364 14.8359 1071.19 -38.7248 721.537
lowerback -0.110037 1.38727 -3.9264
upperback 0.404925 1.86099 -1.28475
thorax 0.394738 0.915585 0.888541
lowerneck -28.0918 -3.20639 -1.3893
upperneck 24.9099 -5.79594 5.56503
head 13.2806 -1.87544 1.29331
rclavicle 1.89342e-014 -7.95139e-016
rhumerus 34.737 13.9959 -40.5504
rradius 37.5164
rwrist -0.148637
rhand -5.43731 -29.8492
rfingers 7.12502
rthumb 20.3732 -58.8005
lclavicle 1.89342e-014 -7.95139e-016
lhumerus 36.2703 -14.6259 35.4942
lradius 39.3381
lwrist 3.4464
lhand -17.9519 -25.2223
lfingers 7.12502
lthumb 8.31673 4.59397
rfemur 13.6278 -8.10439 19.3656
rtibia 7.31043
rfoot -19.6302 -0.493476
rtoes 25.1602
lfemur 6.46556 4.97238 -4.42299
ltibia 45.5382
lfoot -9.4902 6.29392
ltoes -3.60085
2645
root 7.4996 17.1381 14.8772 1070.99 -39.1703 721.714
lowerback -0.0686116 1.34999 -4.09818
upperback 0.39792 1.80925 -1.18892
thorax 0.358309 0.88979 1.08118
lowerneck -27.9844 -3.1011 -1.18684
upperneck 24.6395 -5.62015 5.28192
head 13.1223 -1.82767 1.1818
rclavicle -6.86304e-014 -1.98785e-014
rhumerus 35.0749 14.2819 -39.9355
rradius 37.9095
rwrist -0.71987
rhand -5.38282 -30.0941
rfingers 7.12502
rthumb 20.4256 -59.0398
lclavicle -6.86304e-014 -1.98785e-014
lhumerus 36.1747 -14.5073 35.1655
lradius 39.544
lwrist 3.75418
lhand -17.5447 -25.3795
lfingers 7.12502
lthumb 8.70968 4.42081
rfemur 14.0189 -7.73774 19.3376
rtibia 7.11294
rfoot -19.7986 -0.358427
rtoes 25.1871
lfemur 5.94593 4.37578 -5.20107
ltibia 45.1186
lfoot -10.1386 6.57128
ltoes -5.42935
2646
root 7.44686 17.1422 14.9226 1070.68 -39.6531 722.138
lowerback -0.165594 1.27685 -4.45874
upperback 0.463004 1.7202 -1.18195
thorax 0.47331 0.840688 1.29271
lowerneck -28.3251 -3.06691 -1.23531
upperneck 24.886 -5.5634 5.26384
head 13.2879 -1.79819 1.19328
rclavicle -7.36497e-014 3.97569e-016
rhumerus 35.5717 14.3035 -39.7822
rradius 37.9331
rwrist -0.72779
rhand -5.11129 -30.1629
rfingers 7.12502
rthumb 20.6865 -59.0805
lclavicle -7.36497e-014 3.97569e-016
lhumerus 36.2427 -14.0528 35.0335
lradius 39.3596
lwrist 3.7898
lhand -17.1988 -25.7145
lfingers 7.12502
lthumb 9.04351 4.07165
rfemur 14.3351 -7.60402 18.9413
rtibia 7.02196
rfoot -19.8184 0.100791
rtoes 25.429
lfemur 5.4351 3.74203 -6.27641
ltibia 44.6854
lfoot -10.8598 6.9118
ltoes -7.48543
2647
root 7.39281 17.1459 14.97 1070.66 -40.1884 722.122
lowerback -0.280043 1.17134 -4.43758
upperback 0.501168 1.58762 -1.10273
thorax 0.582336 0.771956 1.36504
lowerneck -28.4136 -2.97045 -1.0041
upperneck 24.7667 -5.42508 4.97641
head 13.2313 -1.75757 1.06783
rclavicle -3.95581e-014 3.18055e-015
rhumerus 36.0305 14.3796 -39.7211
rradius 37.934
rwrist -0.432366
rhand -4.89666 -30.0942
rfingers 7.12502
rthumb 20.8927 -58.9891
lclavicle -3.95581e-014 3.18055e-015
lhumerus 36.7054 -14.2477 34.229
lradius 39.3016
lwrist 4.34438
lhand -17.479 -25.2538
lfingers 7.12502
lthumb 8.77317 4.54381
rfemur 14.6494 -7.40022 19.0373
rtibia 6.92834
rfoot -19.8845 0.406222
rtoes 25.2675
lfemur 4.97855 3.03326 -6.90656
ltibia 44.1569
lfoot -11.6393 7.26624
ltoes -8.72265
2648
root 7.3434 17.1477 15.0156 1070.85 -40.697 721.875
lowerback -0.337039 1.10805 -4.19227
upperback 0.400148 1.50206 -1.0004
thorax 0.518737 0.733111 1.33265
lowerneck -28.1744 -2.98245 -1.103
upperneck 24.6084 -5.41547 5.06303
head 13.1261 -1.75905 1.12049
rclavicle -2.98177e-016 -2.3059e-014
rhumerus 36.1472 14.5679 -39.6276
rradius 38.0616
rwrist -0.442263
rhand -4.90735 -29.9651
rfingers 7.12502
rthumb 20.8824 -58.8611
lclavicle -2.98177e-016 -2.3059e-014
lhumerus 36.1654 -14.7157 33.1458
lradius 40.2272
lwrist 5.45315
lhand -17.7433 -24.7532
lfingers 7.12502
lthumb 8.51805 5.05496
rfemur 14.9149 -7.13512 19.4055
rtibia 6.78974
rfoot -19.9684 0.629496
rtoes 25.9045
lfemur 4.41794 2.23702 -7.34229
ltibia 43.6638
lfoot -12.6118 7.56668
ltoes -7.54181
2649
root 7.29839 17.1482 15.0602 1071.12 -41.1838 721.57
lowerback -0.27359 1.10277 -3.74185
upperback 0.207818 1.48398 -1.00306
thorax 0.298017 0.732003 1.07461
lowerneck -28.1512 -3.10024 -1.61228
upperneck 24.7727 -5.5719 5.67266
head 13.2366 -1.7871 1.4147
rclavicle 6.57977e-014 8.34896e-015
rhumerus 36.0394 14.6885 -39.6617
rradius 38.1138
rwrist -0.596166
rhand -4.99922 -29.7339
rfingers 7.12502
rthumb 20.7942 -58.6396
lclavicle 6.57977e-014 8.34896e-015
lhumerus 36.3956 -14.52 33.5387
lradius 39.8093
lwrist 4.87807
lhand -17.8178 -24.5601
lfingers 7.12502
lthumb 8.44622 5.251
rfemur 15.1365 -6.91874 19.7821
rtibia 6.54349
rfoot -19.9875 0.810118
rtoes 27.424
lfemur 3.76505 1.36388 -7.79241
ltibia 43.168
lfoot -13.4017 7.94923
ltoes -7.47409
2650
root 7.25403 17.1477 15.1042 1071.3 -41.706 721.479
lowerback -0.522864 1.09616 -3.71035
upperback 0.248599 1.48856 -0.820923
thorax 0.475378 0.731209 1.24952
lowerneck -28.2447 -3.15385 -1.67672
upperneck 24.6552 -5.54395 5.47447
head 13.1978 -1.80994 1.35131
rclavicle 2.1916e-014 1.19271e-015
rhumerus 36.3904 14.8243 -38.9482
rradius 38.3058
rwrist -0.97199
rhand -5.18143 -29.7165
rfingers 7.12502
rthumb 20.6191 -58.6414
lclavicle 2.1916e-014 1.19271e-015
lhumerus 36.5819 -14.596 33.0592
lradius 40.046
lwrist 5.38695
lhand -17.7643 -24.2935
lfingers 7.12502
lthumb 8.49777 5.51553
rfemur 15.3038 -6.67474 19.9744
rtibia 6.31236
rfoot -20.0585 0.841929
rtoes 27.2512
lfemur 3.03287 0.522286 -8.45952
ltibia 42.6701
lfoot -13.9502 8.38176
ltoes -9.6785
2651
root 7.21164 17.1487 15.1486 1071.35 -42.3144 721.618
lowerback -0.334706 1.06455 -3.40661
upperback 0.0102428 1.42912 -1.00387
thorax 0.140347 0.709816 0.885265
lowerneck -28.415 -3.24316 -1.92312
upperneck 24.887 -5.68458 5.78967
head 13.3542 -1.84257 1.48963
rclavicle 5.10877e-014 5.1684e-015
rhumerus 36.4629 15.1453 -38.9211
rradius 38.4672
rwrist -1.20296
rhand -5.42954 -29.8618
rfingers 7.12502
rthumb 20.3807 -58.8123
lclavicle 5.10877e-014 5.1684e-015
lhumerus 36.5638 -14.4411 32.8626
lradius 39.9779
lwrist 5.19753
lhand -17.2753 -24.7785
lfingers 7.12502
lthumb 8.96971 5.01079
rfemur 15.3518 -6.5806 19.8696
rtibia 6.33801
rfoot -20.1244 1.27912
rtoes 25.8942
lfemur 2.31229 -0.150928 -9.23128
ltibia 42.1881
lfoot -14.7829 8.39938
ltoes -10.1995
2652
root 7.16845 17.1486 15.1929 1071.38 -42.9836 721.762
lowerback -0.517876 1.04616 -3.52173
upperback 0.0490514 1.41478 -0.888175
thorax 0.277714 0.700186 1.07226
lowerneck -28.2357 -3.08421 -1.04655
upperneck 24.4179 -5.41878 4.58787
head 13.0377 -1.8272 0.923205
rclavicle -2.97183e-014 1.98785e-015
rhumerus 36.9032 15.2723 -38.4146
rradius 38.6343
rwrist -1.39995
rhand -5.54194 -29.9889
rfingers 7.12502
rthumb 20.2726 -58.9509
lclavicle -2.97183e-014 1.98785e-015
lhumerus 36.6192 -14.0934 32.8681
lradius 39.9405
lwrist 5.14252
lhand -17.2131 -24.7961
lfingers 7.12502
lthumb 9.02972 4.99059
rfemur 15.4265 -6.43161 19.7713
rtibia 6.34614
rfoot -20.0459 1.81753
rtoes 27.6367
lfemur 1.73539 -0.77319 -9.91321
ltibia 41.5665
lfoot -15.5894 8.27689
ltoes -10.371
